<?xml version="1.0" encoding="utf-8"?>
<!-- Generator: Adobe Illustrator 16.0.0, SVG Export Plug-In . SVG Version: 6.00 Build 0)  -->
<!DOCTYPE svg PUBLIC "-//W3C//DTD SVG 1.1//EN" "http://www.w3.org/Graphics/SVG/1.1/DTD/svg11.dtd">
<svg version="1.1" id="Layer_1" xmlns="http://www.w3.org/2000/svg" xmlns:xlink="http://www.w3.org/1999/xlink" x="0px" y="0px"
	 width="25px" height="25px" viewBox="0 0 25 25" enable-background="new 0 0 25 25" xml:space="preserve">
<path fill-rule="evenodd" clip-rule="evenodd" fill="#FFFFFF" d="M17.175,8.36c0,3.619-1.11,6.506-4.729,6.506l0,0
	c-3.618,0-4.729-2.887-4.729-6.506l0,0c0-3.617,1.111-6.6,4.729-6.6l0,0C16.065,1.761,17.175,4.743,17.175,8.36L17.175,8.36z
	 M23.473,23.761c0-1.782-0.417-4.216-1.248-5.655c-0.893-1.54-4.674-1.94-6.236-2.801c-1.398-0.772,1.238-1.961-3.542-1.961
	s-2.136,1.182-3.542,1.96c-1.55,0.86-5.35,1.274-6.237,2.805c-0.832,1.439-1.248,3.868-1.248,5.652"/>
</svg>
