<?xml version="1.0" encoding="utf-8"?>
<!-- Generator: Adobe Illustrator 15.0.2, SVG Export Plug-In . SVG Version: 6.00 Build 0)  -->
<!DOCTYPE svg PUBLIC "-//W3C//DTD SVG 1.1//EN" "http://www.w3.org/Graphics/SVG/1.1/DTD/svg11.dtd">
<svg version="1.1" id="Layer_1" xmlns="http://www.w3.org/2000/svg" xmlns:xlink="http://www.w3.org/1999/xlink" x="0px" y="0px"
	 width="40px" height="40px" viewBox="0 0 40 40" enable-background="new 0 0 40 40" xml:space="preserve">
<path fill="none" stroke="#FFFFFF" stroke-width="2" stroke-miterlimit="10" d="M37.5,19.199c0,3.011,0,11.096,0,11.171
	c0,1.886,0,1.616-2.095,1.616H4.601C2.5,31.932,2.5,32.256,2.5,30.37c0-2.149,0-7.112,0-9.524l0,0c0-3.378,0-9.611,0-9.646
	c0-1.479,0-1.15,2.101-1.2h30.805C37.5,10.025,37.5,9.827,37.5,11.2c0,2.701,0,6.728,0,9.646V19.199z"/>
<line fill="none" stroke="#FFFFFF" stroke-width="3" stroke-miterlimit="10" x1="37.017" y1="16.25" x2="2.599" y2="16.25"/>
<path fill="none" stroke="#FFFFFF" stroke-width="4" stroke-miterlimit="10" d="M26.795,24.932c-0.519,0-0.937,0.418-0.937,0.937
	c0,0.529,0.418,0.948,0.937,0.948c0.528,0,0.947-0.419,0.947-0.948C27.742,25.35,27.323,24.932,26.795,24.932z"/>
<path fill="none" stroke="#FFFFFF" stroke-width="4" stroke-miterlimit="10" d="M31.309,24.932c-0.517,0-0.946,0.418-0.946,0.937
	c0,0.529,0.43,0.948,0.946,0.948c0.519,0,0.937-0.419,0.937-0.948C32.245,25.35,31.827,24.932,31.309,24.932z"/>
<line fill="none" stroke="#FFFFFF" stroke-miterlimit="10" x1="4.798" y1="26" x2="12.798" y2="26"/>
<line fill="none" stroke="#FFFFFF" stroke-miterlimit="10" x1="14.223" y1="26" x2="19.279" y2="26"/>
</svg>
