<?xml version="1.0" encoding="utf-8"?>
<!-- Generator: Adobe Illustrator 15.0.2, SVG Export Plug-In . SVG Version: 6.00 Build 0)  -->
<!DOCTYPE svg PUBLIC "-//W3C//DTD SVG 1.1//EN" "http://www.w3.org/Graphics/SVG/1.1/DTD/svg11.dtd">
<svg version="1.1" id="Layer_1" xmlns="http://www.w3.org/2000/svg" xmlns:xlink="http://www.w3.org/1999/xlink" x="0px" y="0px"
	 width="25px" height="25px" viewBox="0 0 25 25" enable-background="new 0 0 25 25" xml:space="preserve">
<path fill="#FFFFFF" d="M6.081,10.564H2.206c-0.667-0.676-0.989-2.893-0.583-3.75c0.447-0.948,2.216-2.307,3.166-2.75
	c1.162-0.542,3.646-1.285,4.917-1.458c3.075-0.419,3.106-0.39,6.418,0c0.688,0.081,2.325,0.642,3.041,1
	c0.816,0.409,2.387,1.368,3.084,1.958c0.329,0.28,1.081,0.833,1.197,1.25c0.258,0.918,0.076,3.194-0.697,3.75h-3.834
	C18.04,9.981,18.214,9.027,18,8.5c-0.208-0.515-0.26-1.156-1-1.915c-0.471-0.482-1.752-1.107-2.4-1.286
	c-0.965-0.264-3.218-0.191-4.2,0C9.754,5.426,8.477,6.129,8,6.585C7.585,6.981,7.213,7.967,7,8.5
	C6.799,9.001,6.537,10.274,6.081,10.564 M8.417,10.731H7.04c0,0-3.556,5.302-4.083,7.333c-0.257,0.987-0.424,3.154,0,4.083
	c0.124,0.271,0.833,0.854,0.833,0.854h17.25c0,0,0.828-0.595,0.958-0.896c0.39-0.898,0.295-2.983,0-3.917
	c-0.634-2.008-3.916-7.458-3.916-7.458h-1.75V8.439c-0.021-0.471-2.354-0.471-2.334,0v2.292h-2.952V8.439
	c0-0.609-2.632-0.646-2.632,0 M17.5,17.3c0,2.762-2.238,5-5,5c-2.761,0-5-2.238-5-5s2.239-5,5-5C15.262,12.3,17.5,14.538,17.5,17.3z
	 M12.5,13.3c-2.209,0-4,1.791-4,4s1.791,4,4,4s4-1.791,4-4S14.709,13.3,12.5,13.3z"/>
</svg>
