<?xml version="1.0" encoding="utf-8"?>
<!-- Generator: Adobe Illustrator 16.0.0, SVG Export Plug-In . SVG Version: 6.00 Build 0)  -->
<!DOCTYPE svg PUBLIC "-//W3C//DTD SVG 1.1//EN" "http://www.w3.org/Graphics/SVG/1.1/DTD/svg11.dtd">
<svg version="1.1" id="Layer_1" xmlns="http://www.w3.org/2000/svg" xmlns:xlink="http://www.w3.org/1999/xlink" x="0px" y="0px"
	 width="25px" height="25px" viewBox="0 0 25 25" enable-background="new 0 0 25 25" xml:space="preserve">
<path fill-rule="evenodd" clip-rule="evenodd" fill="#FFFFFF" d="M11.773,19.353c1.465,1.947,3.602,4.151,5.769,4.147
	c-1.125-0.929-1.842-2.792-2.271-4.371c5.278-0.935,9.206-4.471,9.206-8.694c0-4.934-5.363-8.935-11.978-8.935
	S0.523,5.501,0.523,10.435C0.523,15.189,5.497,19.072,11.773,19.353z M11.2,12.763c-0.047-0.158-0.083-0.337-0.109-0.536
	s-0.039-0.387-0.039-0.564c0-0.282,0.021-0.538,0.063-0.771c0.042-0.232,0.106-0.452,0.19-0.657c0.085-0.204,0.191-0.4,0.318-0.586
	c0.127-0.187,0.276-0.372,0.445-0.557c0.179-0.194,0.335-0.378,0.47-0.545c0.134-0.169,0.248-0.337,0.343-0.506
	c0.094-0.167,0.165-0.341,0.211-0.522c0.047-0.181,0.071-0.381,0.071-0.601c0-0.19-0.026-0.365-0.078-0.528
	c-0.052-0.162-0.126-0.301-0.223-0.417c-0.096-0.117-0.214-0.209-0.353-0.275c-0.139-0.067-0.293-0.101-0.463-0.101
	c-0.368,0-0.749,0.099-1.144,0.297c-0.396,0.2-0.77,0.501-1.124,0.904V4.036c0.363-0.281,0.758-0.491,1.187-0.633
	c0.428-0.142,0.871-0.212,1.328-0.212c0.438,0,0.845,0.063,1.222,0.188c0.377,0.125,0.706,0.322,0.986,0.592
	c0.28,0.27,0.499,0.613,0.657,1.032c0.158,0.42,0.237,0.923,0.237,1.51c0,0.374-0.033,0.712-0.099,1.014
	c-0.066,0.304-0.163,0.59-0.29,0.858c-0.127,0.27-0.285,0.527-0.473,0.775s-0.405,0.503-0.65,0.767
	c-0.165,0.177-0.31,0.343-0.435,0.496c-0.125,0.152-0.229,0.304-0.311,0.454c-0.083,0.149-0.145,0.31-0.187,0.477
	c-0.043,0.168-0.064,0.359-0.064,0.574c0,0.146,0.015,0.296,0.046,0.449s0.072,0.282,0.124,0.385H11.2z M12.231,16.782
	c-0.376,0-0.689-0.146-0.939-0.44c-0.25-0.305-0.375-0.667-0.375-1.082c0-0.429,0.125-0.786,0.375-1.073
	c0.25-0.288,0.563-0.432,0.939-0.432c0.373,0,0.681,0.144,0.925,0.432c0.245,0.281,0.367,0.639,0.367,1.073
	c0,0.44-0.12,0.805-0.36,1.092C12.919,16.639,12.608,16.782,12.231,16.782z"/>
</svg>
