<?xml version="1.0" encoding="utf-8"?>
<!-- Generator: Adobe Illustrator 16.0.0, SVG Export Plug-In . SVG Version: 6.00 Build 0)  -->
<!DOCTYPE svg PUBLIC "-//W3C//DTD SVG 1.1//EN" "http://www.w3.org/Graphics/SVG/1.1/DTD/svg11.dtd">
<svg version="1.1" id="Layer_1" xmlns="http://www.w3.org/2000/svg" xmlns:xlink="http://www.w3.org/1999/xlink" x="0px" y="0px"
	 width="37.001px" height="40px" viewBox="0 0 37.001 40" enable-background="new 0 0 37.001 40" xml:space="preserve">
<polygon id="roof" fill-rule="evenodd" clip-rule="evenodd" fill="#FFFFFF" points="0,7.296 16.498,0.789 18.5,0 20.502,0.789 
	37,7.296 37,10.918 32.726,9.238 32.646,9.205 32.479,9.137 32.395,9.104 32.228,9.036 32.145,9.004 31.979,8.943 31.895,8.911 
	31.728,8.844 31.648,8.811 31.478,8.743 31.397,8.71 31.231,8.643 31.147,8.616 30.98,8.549 30.897,8.516 30.73,8.449 30.646,8.415 
	30.479,8.349 30.399,8.315 30.23,8.255 30.15,8.222 29.979,8.154 29.899,8.121 29.733,8.054 29.649,8.021 29.482,7.953 
	29.398,7.921 29.232,7.859 29.148,7.827 28.982,7.76 28.901,7.727 28.731,7.66 28.65,7.627 28.484,7.56 28.4,7.533 28.234,7.466 
	28.15,7.433 27.984,7.365 27.9,7.332 26.986,6.971 26.902,6.938 26.735,6.87 26.651,6.838 25.737,6.477 25.654,6.449 25.487,6.383 
	25.404,6.349 24.24,5.888 24.159,5.856 18.992,3.821 18.5,3.622 18.007,3.821 13.261,5.694 13.049,5.775 13.011,5.787 12.802,5.876 
	12.76,5.888 12.302,6.07 12.264,6.088 11.304,6.463 11.262,6.477 11.054,6.563 11.015,6.576 10.803,6.657 10.765,6.677 
	10.553,6.758 10.515,6.776 10.302,6.858 10.265,6.87 9.555,7.153 9.517,7.172 9.305,7.254 9.267,7.265 9.054,7.353 9.016,7.365 
	8.804,7.446 8.766,7.466 8.557,7.546 8.516,7.56 8.307,7.646 8.269,7.66 7.807,7.841 7.768,7.859 7.556,7.941 7.518,7.953 
	7.305,8.042 7.267,8.054 7.059,8.136 7.021,8.154 6.809,8.236 6.77,8.255 6.559,8.337 6.521,8.349 6.308,8.437 6.27,8.449 
	5.811,8.63 5.769,8.643 5.56,8.73 5.522,8.743 5.31,8.823 5.272,8.844 5.06,8.924 5.021,8.943 0,10.919 0,7.296 "/>
<rect id="base" x="-0.001" y="36.5" fill-rule="evenodd" clip-rule="evenodd" fill="#FFFFFF" width="37" height="3.5"/>
<rect id="door" x="17" y="22.691" fill-rule="evenodd" clip-rule="evenodd" fill="#FFFFFF" width="3.956" height="10.892"/>
<path fill-rule="evenodd" clip-rule="evenodd" fill="#FFFFFF" d="M28.058,21.691h-5.054l-0.004-5h5.058V21.691z M5.216,33.583
	h26.566l0-17.218l0,0h2.377v-3.066C28.941,11.2,23.721,9.1,18.5,7c-5.22,2.1-10.441,4.2-15.66,6.299v3.066h2.376 M20.487,33.583H14
	V19.691h6.487V33.583z"/>
<rect x="26" y="19.691" fill-rule="evenodd" clip-rule="evenodd" fill="#FFFFFF" width="2.83" height="2.216"/>
</svg>
