<?xml version="1.0" encoding="utf-8"?>
<!-- Generator: Adobe Illustrator 16.0.0, SVG Export Plug-In . SVG Version: 6.00 Build 0)  -->
<!DOCTYPE svg PUBLIC "-//W3C//DTD SVG 1.1//EN" "http://www.w3.org/Graphics/SVG/1.1/DTD/svg11.dtd">
<svg version="1.1" id="Layer_1" xmlns="http://www.w3.org/2000/svg" xmlns:xlink="http://www.w3.org/1999/xlink" x="0px" y="0px"
	 width="40px" height="40px" viewBox="0 0 40 40" enable-background="new 0 0 40 40" xml:space="preserve">
<title>Home</title>
<rect id="base" x="3.55" y="34.333" fill="#FFFFFF" width="32.584" height="3.168"/>
<path fill="#FFFFFF" d="M12.313,32.854c0,1.657-1.525,1.734-3.407,1.734l0,0c-1.881,0-3.407-0.077-3.407-1.734V6.492
	c0-1.657,1.525-1.403,3.407-1.403l0,0c1.882,0,3.407-0.254,3.407,1.403V32.854z M6.163,30.033c0,1.26,0.98,2.191,2.479,2.191
	c1.429,0,2.396-0.875,2.396-2.122c0-1.204-0.861-2.192-2.486-2.192C7.15,27.91,6.163,28.744,6.163,30.033z M6.66,30.061
	c0-1.016,0.981-1.506,1.92-1.506c1.071,0,1.961,0.547,1.961,1.514c0,0.959-0.903,1.506-1.912,1.506
	C7.592,31.574,6.66,31.069,6.66,30.061z M7.571,27.43l3.39-1.021v-0.561L9.35,25.301c-0.363-0.119-0.714-0.225-1.12-0.309v-0.014
	c0.399-0.084,0.735-0.182,1.113-0.301l1.618-0.519V23.6l-3.39-1.094v0.609L9.273,23.6c0.398,0.111,0.756,0.203,1.1,0.258v0.021
	c-0.344,0.077-0.701,0.176-1.107,0.301l-1.694,0.525v0.52l1.729,0.553c0.364,0.111,0.729,0.225,1.072,0.301V26.1
	c-0.351,0.063-0.701,0.154-1.079,0.252L7.571,26.8V27.43z M10.961,21.893v-0.615H8.923c-0.105,0-0.21-0.015-0.287-0.043
	c-0.343-0.105-0.631-0.42-0.631-0.826c0-0.582,0.456-0.784,1.002-0.784h1.954v-0.617H8.937c-1.162,0-1.442,0.729-1.442,1.198
	c0,0.561,0.315,0.953,0.638,1.121v0.014l-0.561,0.035v0.546c0.28-0.021,0.567-0.028,0.917-0.028H10.961z M9.378,15.283
	c-0.063-0.007-0.161-0.021-0.287-0.021c-0.623,0-1.597,0.294-1.597,1.401c0,0.987,0.806,1.59,1.828,1.59s1.709-0.624,1.709-1.667
	c0-0.539-0.112-0.911-0.21-1.127l-0.441,0.105c0.098,0.231,0.175,0.497,0.175,0.938c0,0.616-0.343,1.148-1.177,1.163V15.283z
	 M8.937,17.658c-0.427-0.049-1.001-0.322-1.001-0.946c0-0.693,0.609-0.861,1.001-0.854V17.658z M10.961,14.501v-0.609H9.154
	c-0.105,0-0.203-0.014-0.287-0.028c-0.463-0.084-0.792-0.393-0.792-0.827c0-0.084,0.007-0.147,0.021-0.21H7.515
	c-0.014,0.056-0.021,0.105-0.021,0.175c0,0.414,0.287,0.785,0.742,0.938v0.028L7.571,13.99v0.539
	c0.315-0.021,0.658-0.028,1.058-0.028H10.961z M10.8,12.45c0.14-0.238,0.231-0.582,0.231-0.953c0-0.806-0.421-1.268-1.016-1.268
	c-0.505,0-0.799,0.301-1.022,0.889c-0.168,0.441-0.295,0.645-0.574,0.645c-0.253,0-0.463-0.203-0.463-0.567
	c0-0.315,0.112-0.56,0.196-0.693l-0.448-0.154c-0.112,0.189-0.21,0.491-0.21,0.833c0,0.729,0.448,1.17,0.994,1.17
	c0.406,0,0.743-0.287,0.96-0.896c0.168-0.456,0.329-0.63,0.623-0.63c0.28,0,0.505,0.21,0.505,0.658c0,0.308-0.127,0.63-0.245,0.813
	L10.8,12.45z"/>
<path fill="#FFFFFF" d="M19.597,32.896c0,1.657-1.523,1.734-3.401,1.734l0,0c-1.879,0-3.402-0.077-3.402-1.734V6.534
	c0-1.657,1.523-1.403,3.402-1.403l0,0c1.878,0,3.401-0.254,3.401,1.403V32.896z M18.249,31.943v-0.609h-2.136v-1.785h-0.505v1.785
	H14.04v-1.933h-0.512v2.542H18.249z M13.521,28.43c0,0.225,0.168,0.385,0.385,0.385c0.211,0,0.379-0.154,0.379-0.371
	c0-0.245-0.168-0.398-0.379-0.393C13.689,28.051,13.521,28.198,13.521,28.43z M18.249,28.121h-3.39v0.617h3.39V28.121z M18.249,27.1
	v-0.616h-4.973V27.1H18.249z M16.666,22.723c-0.063-0.006-0.161-0.021-0.287-0.021c-0.623,0-1.597,0.294-1.597,1.401
	c0,0.986,0.806,1.59,1.828,1.59s1.709-0.624,1.709-1.668c0-0.539-0.112-0.91-0.21-1.127l-0.441,0.105
	c0.098,0.23,0.175,0.496,0.175,0.938c0,0.617-0.343,1.148-1.177,1.163V22.723z M16.225,25.098c-0.427-0.049-1.001-0.322-1.001-0.945
	c0-0.693,0.609-0.861,1.001-0.855V25.098z M18.249,21.941v-0.609h-1.807c-0.105,0-0.203-0.015-0.287-0.028
	c-0.463-0.085-0.792-0.393-0.792-0.827c0-0.084,0.007-0.147,0.021-0.21h-0.582c-0.014,0.056-0.021,0.105-0.021,0.175
	c0,0.414,0.287,0.785,0.742,0.939v0.027l-0.665,0.021v0.539c0.315-0.021,0.658-0.027,1.058-0.027H18.249z M18.088,19.89
	c0.14-0.238,0.231-0.582,0.231-0.953c0-0.806-0.421-1.268-1.016-1.268c-0.505,0-0.799,0.301-1.022,0.889
	c-0.168,0.441-0.295,0.645-0.574,0.645c-0.253,0-0.463-0.203-0.463-0.567c0-0.315,0.112-0.56,0.196-0.693l-0.448-0.154
	c-0.112,0.189-0.21,0.491-0.21,0.833c0,0.729,0.448,1.17,0.994,1.17c0.406,0,0.743-0.287,0.96-0.896
	c0.168-0.456,0.329-0.63,0.623-0.63c0.28,0,0.505,0.21,0.505,0.658c0,0.308-0.127,0.63-0.245,0.813L18.088,19.89z"/>
<path fill="#FFFFFF" d="M26.892,32.876c0,1.657-1.523,1.734-3.401,1.734l0,0c-1.879,0-3.401-0.077-3.401-1.734V6.513
	c0-1.657,1.522-1.403,3.401-1.403l0,0c1.878,0,3.401-0.254,3.401,1.403V32.876z M25.252,32.021V31.5h-1.829v-1.529h-0.432V31.5
	h-1.344v-1.655H21.21v2.177H25.252z M22.283,28.074c0,0.803,0.57,1.439,1.542,1.439c0.917,0,1.493-0.605,1.493-1.392
	c0-0.702-0.468-1.445-1.542-1.445C22.89,26.677,22.283,27.24,22.283,28.074z M22.68,28.086c0-0.623,0.623-0.869,1.115-0.869
	c0.653,0,1.127,0.377,1.127,0.881c0,0.516-0.479,0.882-1.115,0.882C23.255,28.979,22.68,28.71,22.68,28.086z M22.283,24.779
	c0,0.805,0.57,1.439,1.542,1.439c0.917,0,1.493-0.605,1.493-1.391c0-0.702-0.468-1.445-1.542-1.445
	C22.89,23.383,22.283,23.946,22.283,24.779z M22.68,24.791c0-0.623,0.623-0.869,1.115-0.869c0.653,0,1.127,0.378,1.127,0.882
	c0,0.516-0.479,0.882-1.115,0.882C23.255,25.686,22.68,25.416,22.68,24.791z M21.654,22.596h0.695v0.449h0.401v-0.449h1.583
	c0.342,0,0.601-0.055,0.756-0.205c0.145-0.125,0.222-0.323,0.222-0.568c0-0.205-0.029-0.367-0.071-0.469l-0.396,0.024
	c0.019,0.065,0.036,0.168,0.036,0.306c0,0.294-0.204,0.396-0.563,0.396h-1.565v-0.756H22.35v0.756h-0.834L21.654,22.596z
	 M25.252,20.729v-0.527h-1.745c-0.09,0-0.18-0.012-0.246-0.036c-0.294-0.09-0.539-0.36-0.539-0.708c0-0.498,0.39-0.672,0.857-0.672
	h1.673v-0.527h-1.733c-0.995,0-1.235,0.624-1.235,1.025c0,0.479,0.271,0.815,0.546,0.959v0.012l-0.479,0.03v0.468
	c0.24-0.019,0.485-0.025,0.785-0.025H25.252z M22.283,16.17c0,0.803,0.57,1.439,1.542,1.439c0.917,0,1.493-0.605,1.493-1.391
	c0-0.702-0.468-1.445-1.542-1.445C22.89,14.772,22.283,15.336,22.283,16.17z M22.68,16.182c0-0.624,0.623-0.869,1.115-0.869
	c0.653,0,1.127,0.377,1.127,0.881c0,0.516-0.479,0.881-1.115,0.881C23.255,17.075,22.68,16.806,22.68,16.182z M21.654,13.985h0.695
	v0.45h0.401v-0.45h1.583c0.342,0,0.601-0.054,0.756-0.204c0.145-0.126,0.222-0.324,0.222-0.569c0-0.204-0.029-0.366-0.071-0.468
	l-0.396,0.024c0.019,0.066,0.036,0.168,0.036,0.306c0,0.294-0.204,0.396-0.563,0.396h-1.565v-0.756H22.35v0.756h-0.834
	L21.654,13.985z M23.896,9.823c-0.054-0.006-0.138-0.018-0.246-0.018c-0.533,0-1.367,0.252-1.367,1.199
	c0,0.846,0.69,1.361,1.565,1.361c0.876,0,1.463-0.534,1.463-1.427c0-0.461-0.096-0.779-0.18-0.965l-0.378,0.09
	c0.084,0.198,0.15,0.426,0.15,0.804c0,0.528-0.294,0.983-1.008,0.996V9.823z M23.519,11.855c-0.365-0.042-0.857-0.276-0.857-0.81
	c0-0.593,0.521-0.737,0.857-0.731V11.855z M25.114,9.354c0.12-0.204,0.197-0.498,0.197-0.815c0-0.69-0.359-1.085-0.869-1.085
	c-0.432,0-0.684,0.258-0.876,0.762c-0.144,0.377-0.251,0.551-0.491,0.551c-0.216,0-0.396-0.174-0.396-0.485
	c0-0.27,0.096-0.48,0.168-0.594l-0.384-0.132c-0.097,0.162-0.181,0.419-0.181,0.713c0,0.624,0.384,1.001,0.852,1.001
	c0.349,0,0.636-0.246,0.822-0.768c0.144-0.39,0.281-0.54,0.533-0.54c0.24,0,0.432,0.18,0.432,0.563c0,0.264-0.107,0.54-0.21,0.696
	L25.114,9.354z"/>
<path fill="#FFFFFF" d="M34.187,32.834c0,1.657-1.523,1.734-3.401,1.734l0,0c-1.879,0-3.401-0.077-3.401-1.734V6.471
	c0-1.657,1.522-1.403,3.401-1.403l0,0c1.878,0,3.401-0.254,3.401,1.403V32.834z M32.607,32.182c0.168-0.252,0.302-0.749,0.302-1.205
	c0-1.113-0.631-1.652-1.359-1.652c-0.693,0-1.078,0.406-1.387,1.205c-0.252,0.65-0.469,0.938-0.91,0.938
	c-0.322,0-0.707-0.244-0.707-0.889c0-0.428,0.14-0.742,0.224-0.896l-0.497-0.168c-0.119,0.21-0.231,0.561-0.231,1.043
	c0,0.918,0.547,1.527,1.282,1.527c0.665,0,1.064-0.477,1.338-1.246c0.245-0.639,0.497-0.891,0.938-0.891
	c0.476,0,0.805,0.365,0.805,0.988c0,0.42-0.14,0.819-0.308,1.092L32.607,32.182z M31.256,25.747
	c-0.063-0.007-0.161-0.021-0.287-0.021c-0.623,0-1.597,0.294-1.597,1.4c0,0.987,0.806,1.59,1.828,1.59s1.709-0.623,1.709-1.667
	c0-0.539-0.112-0.911-0.21-1.128l-0.441,0.105c0.098,0.23,0.175,0.497,0.175,0.938c0,0.616-0.343,1.148-1.177,1.163V25.747z
	 M30.814,28.121c-0.427-0.049-1.001-0.322-1.001-0.945c0-0.693,0.609-0.861,1.001-0.854V28.121z M32.839,24.965v-0.609h-1.807
	c-0.105,0-0.203-0.014-0.287-0.027c-0.463-0.084-0.792-0.393-0.792-0.827c0-0.084,0.007-0.147,0.021-0.21h-0.582
	c-0.014,0.057-0.021,0.105-0.021,0.175c0,0.413,0.287,0.784,0.742,0.938v0.028l-0.665,0.021v0.539
	c0.315-0.021,0.658-0.027,1.058-0.027H32.839z M28.111,22.34c0,0.225,0.168,0.385,0.385,0.385c0.211,0,0.379-0.154,0.379-0.371
	c0-0.245-0.168-0.398-0.379-0.393C28.279,21.961,28.111,22.108,28.111,22.34z M32.839,22.031h-3.39v0.617h3.39V22.031z
	 M31.256,18.286c-0.063-0.007-0.161-0.021-0.287-0.021c-0.623,0-1.597,0.294-1.597,1.401c0,0.987,0.806,1.59,1.828,1.59
	s1.709-0.624,1.709-1.667c0-0.539-0.112-0.911-0.21-1.127l-0.441,0.105c0.098,0.231,0.175,0.497,0.175,0.938
	c0,0.616-0.343,1.148-1.177,1.163V18.286z M30.814,20.66c-0.427-0.049-1.001-0.322-1.001-0.946c0-0.693,0.609-0.861,1.001-0.854
	V20.66z M32.678,17.741c0.14-0.238,0.231-0.582,0.231-0.953c0-0.806-0.421-1.268-1.016-1.268c-0.505,0-0.799,0.301-1.022,0.889
	c-0.168,0.441-0.295,0.645-0.574,0.645c-0.253,0-0.463-0.203-0.463-0.567c0-0.315,0.112-0.56,0.196-0.693l-0.448-0.154
	c-0.112,0.189-0.21,0.491-0.21,0.833c0,0.729,0.448,1.17,0.994,1.17c0.406,0,0.743-0.287,0.96-0.896
	c0.168-0.456,0.329-0.63,0.623-0.63c0.28,0,0.505,0.21,0.505,0.658c0,0.308-0.127,0.63-0.245,0.813L32.678,17.741z"/>
</svg>
