<?xml version="1.0" encoding="utf-8"?>
<!-- Generator: Adobe Illustrator 15.0.2, SVG Export Plug-In . SVG Version: 6.00 Build 0)  -->
<!DOCTYPE svg PUBLIC "-//W3C//DTD SVG 1.1//EN" "http://www.w3.org/Graphics/SVG/1.1/DTD/svg11.dtd">
<svg version="1.1" id="Layer_4__x2B__Layer_22__x2B__N__vaworks__x2B_____o_xA0_Image_1_"
	 xmlns="http://www.w3.org/2000/svg" xmlns:xlink="http://www.w3.org/1999/xlink" x="0px" y="0px" width="53.401px"
	 height="55.475px" viewBox="0 0 53.401 55.475" enable-background="new 0 0 53.401 55.475" xml:space="preserve">
<polygon fill="#FAA634" stroke="#FAA634" stroke-width="0.75" stroke-linecap="round" stroke-linejoin="bevel" stroke-miterlimit="10" points="
	18.896,1.978 20.869,21.577 38.503,14.621 21.108,22.057 32.539,37.175 20.801,22.85 0.47,55.275 20.065,22.326 0.812,16.718 
	19.796,21.284 "/>
<polygon fill="#FAA634" stroke="#FAA634" stroke-width="0.75" stroke-linecap="round" stroke-linejoin="bevel" stroke-miterlimit="10" points="
	43.299,0.276 21.045,22.112 37.079,30.624 20.84,22.586 18.169,40.845 19.708,22.426 0.805,23.434 19.852,21.847 12.165,4.458 
	20.594,21.147 "/>
<polygon fill="#FAA634" stroke="#FAA634" stroke-width="0.75" stroke-linecap="round" stroke-linejoin="bevel" stroke-miterlimit="10" points="
	30.511,3.141 21.367,22.013 41.238,25.545 21.315,22.583 24.709,42.386 20.593,23.128 1.396,30.846 20.22,22.244 0.275,0.636 
	20.558,21.149 "/>
<polygon fill="#FAA634" stroke="#FAA634" stroke-width="0.75" stroke-linecap="round" stroke-linejoin="bevel" stroke-miterlimit="10" points="
	27.981,37.963 20.164,22.89 8.484,32.549 20.355,21.767 7.004,12.736 20.381,21.043 24.808,4.706 21.222,20.766 53.377,21.333 
	21.633,23.339 "/>
<path fill="#FFFFFF" stroke="#FFFFFF" stroke-width="0.75" stroke-miterlimit="10" d="M42.823,49.252h-5.5l-14.49-23.467
	c-0.365-0.593-0.67-1.209-0.91-1.848h-0.125c0.112,0.682,0.168,2.145,0.168,4.385v20.93h-4.864V17.325h5.858l14.001,22.909
	c0.594,0.952,0.975,1.604,1.143,1.957h0.084c-0.141-0.843-0.212-2.276-0.212-4.297V17.325h4.845V49.252z"/>
</svg>
