<?xml version="1.0" encoding="utf-8"?>
<!-- Generator: Adobe Illustrator 15.0.2, SVG Export Plug-In . SVG Version: 6.00 Build 0)  -->
<!DOCTYPE svg PUBLIC "-//W3C//DTD SVG 1.1//EN" "http://www.w3.org/Graphics/SVG/1.1/DTD/svg11.dtd">
<svg version="1.1" id="Layer_4__x2B__Layer_22__x2B__N__vaworks__x2B_____o_xA0_Image_1_"
	 xmlns="http://www.w3.org/2000/svg" xmlns:xlink="http://www.w3.org/1999/xlink" x="0px" y="0px" width="200.276px"
	 height="55.08px" viewBox="-3.365 -0.834 200.276 55.08" enable-background="new -3.365 -0.834 200.276 55.08"
	 xml:space="preserve">
<polygon fill="#FAA634" stroke="#FAA634" stroke-width="0.75" stroke-linecap="round" stroke-linejoin="bevel" stroke-miterlimit="10" points="
	15.387,1.143 17.346,20.592 34.856,13.683 17.59,21.069 28.933,36.08 17.287,21.855 -2.898,54.047 16.55,21.341 -2.563,15.775 
	16.279,20.3 "/>
<polygon fill="#FAA634" stroke="#FAA634" stroke-width="0.75" stroke-linecap="round" stroke-linejoin="bevel" stroke-miterlimit="10" points="
	39.609,-0.558 17.522,21.115 33.438,29.556 17.321,21.588 14.67,39.704 16.19,21.439 -2.57,22.437 16.341,20.864 8.712,3.599 
	17.068,20.171 "/>
<polygon fill="#FAA634" stroke="#FAA634" stroke-width="0.75" stroke-linecap="round" stroke-linejoin="bevel" stroke-miterlimit="10" points="
	26.916,2.297 17.837,21.018 37.561,24.524 17.793,21.585 21.157,41.236 17.068,22.134 -1.983,29.805 16.708,21.257 -3.09,-0.195 
	17.038,20.173 "/>
<polygon fill="#FAA634" stroke="#FAA634" stroke-width="0.75" stroke-linecap="round" stroke-linejoin="bevel" stroke-miterlimit="10" points="
	24.414,36.859 16.648,21.89 5.051,31.473 16.839,20.781 3.582,11.814 16.861,20.069 21.253,3.853 17.703,19.789 194.553,19.291 
	18.105,22.342 "/>
<g>
	<path fill="#FFFFFF" d="M39.133,48.057h-5.446L19.296,24.772c-0.354-0.588-0.667-1.211-0.898-1.837h-0.123
		c0.11,0.679,0.158,2.131,0.158,4.36v20.76h-4.821v-31.68h5.821l13.894,22.727c0.587,0.948,0.966,1.586,1.124,1.946h0.087
		c-0.134-0.832-0.208-2.243-0.208-4.271V16.375h4.805L39.133,48.057L39.133,48.057z"/>
	<path fill="#FFFFFF" d="M51.482,48.559c-3.042,0-5.475-0.971-7.297-2.912c-1.823-1.943-2.728-4.51-2.728-7.731
		c0-3.493,0.952-6.22,2.84-8.179c1.903-1.959,4.455-2.923,7.667-2.923c3.075,0,5.483,0.942,7.194,2.856
		c1.727,1.914,2.59,4.541,2.59,7.94c0,3.313-0.936,5.949-2.791,7.938C57.102,47.564,54.614,48.559,51.482,48.559z M51.691,30.573
		c-1.748,0-3.127,0.634-4.136,1.899c-1.023,1.297-1.527,3.065-1.527,5.338c0,2.172,0.51,3.893,1.543,5.133
		c1.02,1.236,2.394,1.887,4.121,1.887c1.759,0,3.114-0.641,4.048-1.861c0.949-1.223,1.423-2.974,1.423-5.257
		c0-2.291-0.474-4.057-1.423-5.29C54.805,31.189,53.451,30.573,51.691,30.573z"/>
	<path fill="#FFFFFF" d="M81.261,27.299l-8.042,20.756h-5.088L60.49,27.299h5.105l4.615,14.51c0.343,1.084,0.556,1.993,0.639,2.789
		h0.066c0.118-0.998,0.308-1.884,0.57-2.69l4.821-14.609L81.261,27.299L81.261,27.299z"/>
	<path fill="#FFFFFF" d="M97.817,48.057h-4.552V44.83h-0.083c-1.438,2.466-3.533,3.729-6.313,3.729c-2.043,0-3.636-0.56-4.795-1.677
		c-1.159-1.118-1.738-2.569-1.738-4.385c0-3.918,2.256-6.214,6.783-6.853l6.163-0.888c0-2.956-1.416-4.449-4.216-4.449
		c-2.484,0-4.717,0.872-6.699,2.553v-4.114c2.197-1.294,4.713-1.933,7.589-1.933c5.235,0,7.861,2.591,7.861,7.743V48.057z
		 M93.282,37.861l-4.365,0.605c-1.354,0.18-2.365,0.516-3.048,0.981c-0.684,0.497-1.032,1.329-1.032,2.526
		c0,0.865,0.326,1.594,0.948,2.159c0.621,0.564,1.468,0.832,2.527,0.832c1.438,0,2.623-0.487,3.552-1.489
		c0.945-1.029,1.418-2.285,1.418-3.817V37.861z"/>
	<path fill="#FFFFFF" d="M127.641,27.299l-5.795,20.756h-4.682l-3.604-14.07c-0.119-0.547-0.226-1.153-0.259-1.814h-0.063
		c-0.053,0.448-0.15,1.041-0.354,1.779l-3.894,14.107h-4.585L98.596,27.3h4.633l3.574,14.948c0.127,0.467,0.192,1.061,0.24,1.809
		h0.129c0.048-0.568,0.149-1.174,0.306-1.843l4.006-14.914h4.185l3.541,15.03c0.128,0.459,0.198,1.054,0.243,1.779h0.143
		c0.021-0.514,0.135-1.106,0.305-1.779l3.508-15.03L127.641,27.299L127.641,27.299z"/>
	<path fill="#FFFFFF" d="M137.184,48.559c-3.025,0-5.474-0.971-7.281-2.912c-1.81-1.943-2.729-4.51-2.729-7.731
		c0-3.493,0.952-6.22,2.855-8.179c1.873-1.958,4.425-2.923,7.652-2.923c3.063,0,5.48,0.942,7.209,2.856
		c1.696,1.914,2.573,4.541,2.573,7.94c0,3.313-0.937,5.949-2.776,7.938C142.816,47.564,140.316,48.559,137.184,48.559z
		 M137.393,30.573c-1.748,0-3.127,0.634-4.136,1.899c-1.009,1.297-1.528,3.065-1.528,5.338c0,2.172,0.525,3.893,1.545,5.133
		c1.021,1.236,2.424,1.887,4.121,1.887c1.758,0,3.112-0.641,4.063-1.861c0.947-1.223,1.408-2.974,1.408-5.257
		c0-2.291-0.461-4.057-1.408-5.29C140.507,31.189,139.152,30.573,137.393,30.573z"/>
	<path fill="#FFFFFF" d="M161.236,31.782c-0.572-0.468-1.387-0.688-2.439-0.688c-1.388,0-2.553,0.653-3.492,1.896
		c-0.938,1.245-1.394,2.962-1.394,5.123v9.94h-4.703V27.299h4.703v4.283h0.067c0.479-1.477,1.166-2.62,2.123-3.433
		c0.957-0.814,2.012-1.22,3.186-1.22c0.869,0,1.509,0.124,1.949,0.387V31.782z"/>
	<path fill="#FFFFFF" d="M181.741,48.057h-5.949l-8.062-9.975h-0.098v9.975h-4.719V17.31h4.719v19.51h0.098l7.625-9.521h5.658
		l-8.582,10.009L181.741,48.057z"/>
	<path fill="#FFFFFF" d="M182.184,47.416v-4.35c1.756,1.313,3.67,1.998,5.795,1.998c2.854,0,4.265-0.857,4.265-2.519
		c0-0.487-0.104-0.892-0.369-1.202c-0.235-0.34-0.571-0.617-0.981-0.896c-0.41-0.248-0.883-0.472-1.444-0.673
		c-0.567-0.202-1.185-0.457-1.89-0.705c-0.841-0.346-1.609-0.678-2.306-1.057c-0.671-0.382-1.241-0.836-1.685-1.303
		c-0.473-0.466-0.793-1.018-1.045-1.621c-0.228-0.605-0.323-1.326-0.323-2.134c0-0.996,0.229-1.894,0.69-2.659
		c0.49-0.766,1.119-1.398,1.914-1.931c0.795-0.499,1.711-0.907,2.719-1.16c1.009-0.269,2.047-0.395,3.142-0.395
		c1.924,0,3.647,0.292,5.142,0.873V31.8c-1.447-0.995-3.136-1.51-5.01-1.51c-0.592,0-1.138,0.051-1.632,0.184
		c-0.468,0.133-0.873,0.307-1.22,0.52c-0.346,0.214-0.602,0.463-0.789,0.781c-0.191,0.287-0.271,0.63-0.271,1
		c0,0.437,0.08,0.817,0.271,1.142c0.188,0.293,0.459,0.584,0.834,0.813c0.371,0.229,0.839,0.442,1.341,0.641
		c0.53,0.193,1.126,0.404,1.791,0.629c0.903,0.37,1.702,0.743,2.423,1.124c0.691,0.38,1.294,0.804,1.805,1.301
		c0.515,0.466,0.899,1.024,1.158,1.646c0.262,0.625,0.403,1.377,0.403,2.26c0,1.043-0.233,1.969-0.733,2.754
		c-0.476,0.783-1.143,1.423-1.951,1.947c-0.808,0.499-1.748,0.879-2.797,1.148c-1.078,0.242-2.176,0.377-3.352,0.377
		C185.794,48.559,183.829,48.178,182.184,47.416z"/>
</g>
</svg>
