<?xml version="1.0" encoding="utf-8"?>
<!-- Generator: Adobe Illustrator 15.0.2, SVG Export Plug-In . SVG Version: 6.00 Build 0)  -->
<!DOCTYPE svg PUBLIC "-//W3C//DTD SVG 1.1//EN" "http://www.w3.org/Graphics/SVG/1.1/DTD/svg11.dtd">
<svg version="1.1" id="Layer_1" xmlns="http://www.w3.org/2000/svg" xmlns:xlink="http://www.w3.org/1999/xlink" x="0px" y="0px"
	 width="39.676px" height="39.6px" viewBox="0 0 39.676 39.6" enable-background="new 0 0 39.676 39.6" xml:space="preserve">
<path fill="none" stroke="#FFFFFF" stroke-width="2" stroke-linecap="round" stroke-miterlimit="10" d="M19.714,8.029
	c0,0.833,0,1.667,0,2.5c4.08-0.084,7.541,3.18,7.73,7.288c0.096,2.029-0.601,4.217-0.082,6.212c0.404,1.543,1.783,3.033,2.75,4.25
	c-6.875,0-13.75,0-20.625,0c0.883-1.165,1.81-2.385,2.427-3.719c0.768-1.66,0.07-3.822,0.045-5.57
	c-0.039-2.851,1.6-7.301,4.779-7.962 M19.714,28.28c-1.668,0-3.101,0.091-3.101,1.229c0,1.138,1.353,2.063,3.021,2.063
	c1.668,0,3.021-0.924,3.021-2.063C22.655,28.369,21.383,28.28,19.714,28.28z"/>
</svg>
