<?xml version="1.0" encoding="utf-8"?>
<!-- Generator: Adobe Illustrator 16.0.0, SVG Export Plug-In . SVG Version: 6.00 Build 0)  -->
<!DOCTYPE svg PUBLIC "-//W3C//DTD SVG 1.1//EN" "http://www.w3.org/Graphics/SVG/1.1/DTD/svg11.dtd">
<svg version="1.1" id="Layer_1" xmlns="http://www.w3.org/2000/svg" xmlns:xlink="http://www.w3.org/1999/xlink" x="0px" y="0px"
	 width="40px" height="40px" viewBox="-5 -5 40 40" enable-background="new -5 -5 40 40" xml:space="preserve">
<path fill="#FFFFFF" d="M10.939-0.275l-0.511,1.411c0.493,0.464,0.905,0.995,1.235,1.572l1.489-0.167
	c0.42,0.878,0.677,1.812,0.769,2.751l-1.357,0.632c0.02,0.657-0.059,1.333-0.239,1.982l1.168,0.94
	c-0.314,0.892-0.782,1.733-1.399,2.486l-1.409-0.509c-0.464,0.497-0.997,0.91-1.572,1.236l0.165,1.487
	c-0.878,0.423-1.809,0.683-2.749,0.769l-0.633-1.353c-0.659,0.016-1.332-0.064-1.987-0.236l-0.938,1.162
	c-0.889-0.312-1.733-0.784-2.486-1.4l0.512-1.403c-0.498-0.472-0.905-0.998-1.238-1.571l-1.488,0.159
	c-0.423-0.876-0.674-1.807-0.77-2.752l1.357-0.626C-1.16,5.63-1.083,4.963-0.903,4.305l-1.168-0.94
	c0.314-0.892,0.781-1.733,1.399-2.487L0.735,1.39c0.467-0.489,0.999-0.902,1.574-1.238L2.145-1.332
	c0.879-0.423,1.807-0.676,2.746-0.77l0.635,1.361c0.663-0.021,1.33,0.059,1.988,0.235L8.45-1.673
	C9.342-1.356,10.185-0.893,10.939-0.275L10.939-0.275z M6.838,2.483C4.839,1.859,2.71,2.98,2.086,4.979
	C1.461,6.983,2.579,9.107,4.58,9.734c2.002,0.625,4.131-0.492,4.754-2.494C9.959,5.24,8.842,3.109,6.838,2.483z"/>
<path fill="#FFFFFF" d="M19.503,7.747l0.871,2.039c1.007,0.002,1.99,0.156,2.925,0.446l1.441-1.685
	c1.342,0.521,2.563,1.27,3.615,2.186l-0.823,2.06c0.688,0.689,1.282,1.493,1.751,2.382l2.207-0.172
	c0.567,1.277,0.915,2.664,1.011,4.101l-2.036,0.868c-0.005,1.009-0.158,1.992-0.447,2.932l1.688,1.439
	c-0.526,1.337-1.265,2.562-2.189,3.61l-2.059-0.822c-0.692,0.69-1.492,1.288-2.381,1.758l0.171,2.205
	c-1.282,0.563-2.664,0.914-4.102,1.008l-0.874-2.036c-1.005-0.006-1.988-0.162-2.919-0.445l-1.448,1.683
	c-1.342-0.522-2.558-1.27-3.61-2.188l0.823-2.057c-0.687-0.696-1.283-1.494-1.752-2.386l-2.209,0.172
	c-0.565-1.285-0.915-2.663-1.01-4.103l2.038-0.874c0.005-1,0.16-1.985,0.445-2.921l-1.683-1.441c0.521-1.342,1.265-2.56,2.188-3.61
	l2.057,0.821c0.696-0.687,1.496-1.285,2.384-1.755L15.4,8.759C16.681,8.192,18.063,7.839,19.503,7.747L19.503,7.747z M17.841,14.8
	c-2.834,1.372-4.012,4.778-2.642,7.608c1.371,2.827,4.778,4.013,7.605,2.642c2.832-1.373,4.013-4.778,2.645-7.608
	C24.073,14.608,20.669,13.427,17.841,14.8z"/>
</svg>
