<?xml version="1.0" encoding="utf-8"?>
<!-- Generator: Adobe Illustrator 15.0.2, SVG Export Plug-In . SVG Version: 6.00 Build 0)  -->
<!DOCTYPE svg PUBLIC "-//W3C//DTD SVG 1.1//EN" "http://www.w3.org/Graphics/SVG/1.1/DTD/svg11.dtd">
<svg version="1.1" id="Layer_1" xmlns="http://www.w3.org/2000/svg" xmlns:xlink="http://www.w3.org/1999/xlink" x="0px" y="0px"
	 width="40px" height="40px" viewBox="0 0 40 40" enable-background="new 0 0 40 40" xml:space="preserve">
<path fill="#FFFFFF" d="M36,13.281c0,2.874,0,10.593,0,10.664c0,1.801,0,1.543-1.916,1.543H5.92C4,25.437,4,25.746,4,23.945
	c0-2.052,0-6.79,0-9.092l0,0c0-3.225,0-9.174,0-9.208C4,4.234,4,4.547,5.92,4.5h28.164C36,4.524,36,4.335,36,5.645
	c0,2.579,0,6.423,0,9.208V13.281z"/>
<path fill="#FFFFFF" d="M31,33.031c0,1.104-0.572,2-1.278,2H10.278c-0.706,0-1.278-0.896-1.278-2l0,0c0-1.104,0.573-2,1.278-2
	c0,0,5.188,0.688,6.722,0c1.028-0.461-0.167-3.364,3-3.364c3.084,0,1.972,2.903,3,3.364c1.534,0.688,6.722,0,6.722,0
	C30.428,31.031,31,31.927,31,33.031L31,33.031z"/>
<path fill="none" stroke="#FFFFFF" stroke-width="2" stroke-miterlimit="10" d="M37.936,12.954c0,3.422,0,12.612,0,12.695
	c0,2.145,0,1.836-2.147,1.836H4.218c-2.153-0.06-2.152,0.309-2.152-1.836c0-2.442,0-8.082,0-10.822l0,0c0-3.84,0-10.922,0-10.962
	c0-1.681,0-1.307,2.152-1.364h31.57c2.147,0.028,2.147-0.196,2.147,1.364c0,3.069,0,7.646,0,10.962V12.954z"/>
<g>
	<polygon fill="#387C2B" points="28,23 12,23 12,7 18.208,7 18.208,12.542 23.083,7 28,7 	"/>
</g>
</svg>
