<?xml version="1.0" encoding="utf-8"?>
<!-- Generator: Adobe Illustrator 16.0.0, SVG Export Plug-In . SVG Version: 6.00 Build 0)  -->
<!DOCTYPE svg PUBLIC "-//W3C//DTD SVG 1.1//EN" "http://www.w3.org/Graphics/SVG/1.1/DTD/svg11.dtd">
<svg version="1.1" id="Layer_1" xmlns="http://www.w3.org/2000/svg" xmlns:xlink="http://www.w3.org/1999/xlink" x="0px" y="0px"
	 width="39.686px" height="39.686px" viewBox="-7.343 -7.343 39.686 39.686" enable-background="new -7.343 -7.343 39.686 39.686"
	 xml:space="preserve">
<path fill="#AFAFAF" d="M4.741,10.76c0,2.729-0.838,4.909-3.568,4.909l0,0c-2.729,0-3.568-2.179-3.568-4.909l0,0
	c0-2.727,0.839-4.979,3.568-4.979l0,0C3.903,5.782,4.741,8.033,4.741,10.76L4.741,10.76z M9.491,22.378
	c0-1.345-0.314-3.181-0.942-4.268c-0.674-1.162-3.526-1.462-4.704-2.112c-1.054-0.582,0.935-1.478-2.671-1.478
	s-1.611,0.889-2.673,1.478c-1.169,0.648-4.035,0.961-4.704,2.114c-0.627,1.087-0.941,2.92-0.941,4.266"/>
<path fill="#AFAFAF" d="M27.783,10.76c0,2.729-0.839,4.909-3.572,4.909l0,0c-2.727,0-3.566-2.179-3.566-4.909l0,0
	c0-2.727,0.837-4.979,3.566-4.979l0,0C26.944,5.782,27.783,8.033,27.783,10.76L27.783,10.76z M32.532,22.378
	c0-1.345-0.314-3.181-0.941-4.268c-0.674-1.162-3.528-1.462-4.705-2.112c-1.056-0.582,0.936-1.478-2.669-1.478
	c-3.607,0-1.612,0.889-2.671,1.478c-1.171,0.648-4.037,0.961-4.706,2.114c-0.627,1.087-0.942,2.92-0.942,4.266"/>
<path fill="#FFFFFF" d="M17.881,9.089c0,3.968-1.219,7.132-5.188,7.132l0,0c-3.966,0-5.185-3.164-5.185-7.132l0,0
	c0-3.965,1.219-7.236,5.185-7.236l0,0C16.662,1.853,17.881,5.124,17.881,9.089L17.881,9.089z M24.785,25.974
	c0-1.954-0.457-4.621-1.368-6.2c-0.98-1.688-5.125-2.126-6.839-3.069c-1.531-0.848,1.357-2.151-3.886-2.151
	c-5.239,0-2.34,1.296-3.881,2.151C7.11,17.646,2.945,18.1,1.972,19.777c-0.912,1.577-1.369,4.24-1.369,6.196"/>
</svg>
